<?xml version="1.0" encoding="UTF-8"?>
<svg width="24px" height="24px" viewBox="0 0 24 24" version="1.1" xmlns="http://www.w3.org/2000/svg">
    <g stroke="none" stroke-width="1" fill="none" fill-rule="evenodd">
        <path d="M18.92,6.01 C18.72,5.42 18.16,5 17.5,5 L6.5,5 C5.84,5 5.28,5.42 5.08,6.01 L3,11 L8.45,11 L9.16,9 L14.84,9 L15.55,11 L21,11 L18.92,6.01 Z M6.5,16 C7.33,16 8,15.33 8,14.5 C8,13.67 7.33,13 6.5,13 C5.67,13 5,13.67 5,14.5 C5,15.33 5.67,16 6.5,16 Z M17.5,16 C18.33,16 19,15.33 19,14.5 C19,13.67 18.33,13 17.5,13 C16.67,13 16,13.67 16,14.5 C16,15.33 16.67,16 17.5,16 Z" fill="#1976d2"></path>
    </g>
</svg> 